<svg xmlns="http://www.w3.org/2000/svg" version="1.1" xmlns:xlink="http://www.w3.org/1999/xlink" xmlns:svgjs="http://svgjs.dev/svgjs" width="1000" height="223" viewBox="0 0 1000 223">
	<g transform="matrix(1,0,0,1,0.14223314800682374,-0.594055301793702)">
		<svg viewBox="0 0 273 61" data-background-color="#ffffff" preserveAspectRatio="xMidYMid meet" height="223" width="1000" xmlns="http://www.w3.org/2000/svg" xmlns:xlink="http://www.w3.org/1999/xlink">
			<g id="tight-bounds" transform="matrix(1,0,0,1,-0.038829649405869304,0.16249960605605906)">
				<svg viewBox="0 0 273.07765929881174 60.675" height="60.675" width="273.07765929881174">
					<g>
						<svg viewBox="0 0 273.07765929881174 60.675" height="60.675" width="273.07765929881174">
							<g>
								<svg viewBox="0 0 273.07765929881174 60.675" height="60.675" width="273.07765929881174">
									<g id="textblocktransform">
										<svg viewBox="0 0 273.07765929881174 60.675" height="60.675" width="273.07765929881174" id="textblock">
											<g>
												<svg viewBox="0 0 273.07765929881174 60.675" height="60.675" width="273.07765929881174">
													<g id="text-0">
														<svg viewBox="0 0 273.07765929881174 60.675" height="60.675" width="273.07765929881174">
															<g transform="matrix(1,0,0,1,0,11.612499999999997)">
																<svg width="56.42878378378379" viewBox="1.75 -37.400001525878906 55.900001525878906 37" height="37.35" data-palette-color="#2c2d34">
																	<path d="M28.35-2.45L28.35-2.45Q28.35-0.4 25.5-0.4L25.5-0.4Q21.6-0.4 17.32-4.45 13.05-8.5 11.25-12.9L11.25-12.9Q10.45-10.5 10.15-9.65 9.85-8.8 9.25-6.95 8.65-5.1 8.33-4.2 8-3.3 7.6-2.3L7.6-2.3Q6.85-0.4 6.15-0.4L6.15-0.4Q5-0.4 3.38-2.33 1.75-4.25 1.75-5.45 1.75-6.65 2.9-9.9L2.9-9.9Q6.3-19.85 6.8-28.05L6.8-28.05Q5.85-28.8 5.1-30.15 4.35-31.5 4.35-32.4L4.35-32.4Q4.35-33.9 8.22-35.55 12.1-37.2 17.18-37.2 22.25-37.2 25.65-34.8 29.05-32.4 29.05-28.55L29.05-28.55Q29.05-25.7 27.38-23.08 25.7-20.45 23.73-18.98 21.75-17.5 20.08-16.3 18.4-15.1 18.4-14.75L18.4-14.75Q18.4-13.55 19.2-12.48 20-11.4 21.45-9.98 22.9-8.55 23.95-7.58 25-6.6 25.68-5.95 26.35-5.3 27-4.6L27-4.6Q28.35-3.3 28.35-2.45ZM21.35-28.05L21.35-28.05Q21.35-30.15 17.25-30.15L17.25-30.15Q15.3-30.15 12.6-29.05L12.6-29.05Q13.85-27.15 13.85-25.55L13.85-25.55Q13.85-22.65 13.05-19.15L13.05-19.15Q13.6-19.55 15.1-20.58 16.6-21.6 17.43-22.23 18.25-22.85 19.3-23.85L19.3-23.85Q21.35-25.8 21.35-28.05ZM55-11L55-11Q55-6.75 50.95-3.7 46.9-0.65 41.7-0.65 36.5-0.65 33.32-3.23 30.15-5.8 30.15-8.55 30.15-11.3 31.7-11.3L31.7-11.3Q32.9-11.3 34.2-10.1 35.5-8.9 37.12-7.7 38.75-6.5 40.8-6.5 42.85-6.5 45.45-8.2 48.05-9.9 48.05-11.05 48.05-12.2 45.22-14.9 42.4-17.6 39.57-20.48 36.75-23.35 36.75-24.93 36.75-26.5 37.32-28.35 37.9-30.2 38.75-30.9L38.75-30.9Q41.45-33.55 45.72-35.48 50-37.4 53.25-37.4L53.25-37.4Q55.15-37.4 56.4-35.77 57.65-34.15 57.65-32.4L57.65-32.4Q57.65-31.7 56.52-31.28 55.4-30.85 53.27-30.4 51.15-29.95 48.95-29.1L48.95-29.1Q43.85-27.2 43.85-25.9L43.85-25.9Q43.85-25.3 45.6-23.73 47.35-22.15 49.42-20.43 51.5-18.7 53.25-16.07 55-13.45 55-11Z" opacity="1" transform="matrix(1,0,0,1,0,0)" fill="#2c2d34" class="undefined-p-0"></path>
																</svg>
															</g>
															<g>
																<svg xmlns="http://www.w3.org/2000/svg" xmlns:xlink="http://www.w3.org/1999/xlink" version="1.1" x="70.75378378378379" y="0" viewBox="0 2.703500270843506 100 94.59349822998047" 
																	 enable-background="new 0 0 100 100" xml:space="preserve"
																	 height="60.675" width="64.14288628218812" class="icon-s-0" 
																	 data-fill-palette-color="accent" id="s-0">
																	<path d="M98.764 24.607L51.238 2.936c-0.683-0.31-1.79-0.31-2.472 0L1.241 24.607c-0.683 0.312-1.236 1.168-1.236 1.915v9.926h9.455v44.633c0 0.747 0.605 1.352 1.352 1.352h13.513c0.747 0 1.352-0.604 1.352-1.352V36.448h16.216v44.633c0 0.747 0.605 1.352 1.351 1.352h13.514c0.747 0 1.352-0.604 1.352-1.352V36.448h16.216v44.633c0 0.747 0.604 1.352 1.351 1.352h13.515c0.747 0 1.352-0.604 1.352-1.352V36.448h1.351H100v-9.926C100 25.776 99.447 24.919 98.764 24.607z" fill="#89939e" data-fill-palette-color="accent"></path><path d="M94.595 97.297H5.405C2.42 97.297 0 94.877 0 91.892l0 0c0-2.984 2.42-5.405 5.405-5.405h89.189c2.985 0 5.405 2.421 5.405 5.405l0 0C100 94.877 97.58 97.297 94.595 97.297z" fill="#89939e" data-fill-palette-color="accent"></path>
																</svg>
															</g>
															<g transform="matrix(1,0,0,1,149.2216700659719,11.487499999999997)">
																<svg width="123.85598923283987" viewBox="0.25 -37.5 122.69000244140625 37.150001525878906" height="37.5" data-palette-color="#2c2d34">
																	<path d="M28.25-13L28.25-13Q28.25-9.9 24.83-6.9 21.4-3.9 16.53-2.13 11.65-0.35 7.25-0.35L7.25-0.35Q5.35-0.35 2.8-2.68 0.25-5 0.25-6.5L0.25-6.5Q0.25-7.35 0.63-7.85 1-8.35 1.5-8.35 2-8.35 3.73-7.53 5.45-6.7 6.33-6.7 7.2-6.7 8.05-6.85L8.05-6.85Q6.8-7.35 5.55-8.6 4.3-9.85 4.3-11L4.3-11Q4.3-11.5 5.95-18.28 7.6-25.05 7.7-29.85L7.7-29.85Q6.8-30.7 6.08-31.93 5.35-33.15 5.35-33.75L5.35-33.75Q5.35-35.15 7.55-36 9.75-36.85 13.05-36.85L13.05-36.85Q20.05-36.85 24.28-35 28.5-33.15 28.5-29.1L28.5-29.1Q28.5-26.55 26.35-23.9 24.2-21.25 20.7-19.05L20.7-19.05 21.2-18.9Q24.2-18.1 26.23-16.53 28.25-14.95 28.25-13ZM19.4-30.45L19.4-30.45Q17.85-30.45 12.1-29.35L12.1-29.35Q13.9-27.35 13.9-26.03 13.9-24.7 13.05-21.15L13.05-21.15Q13.85-21.75 15.9-22.9 17.95-24.05 18.48-24.43 19-24.8 19.9-25.55L19.9-25.55Q21.6-26.9 21.6-28.68 21.6-30.45 19.4-30.45ZM21.95-13.2L21.95-13.2Q21.95-14.2 19.07-14.93 16.2-15.65 14.3-15.65L14.3-15.65Q13.25-15.65 12.05-17.2L12.05-17.2Q9.8-7.95 9.35-7.05L9.35-7.05Q13.55-7.95 17.75-9.8 21.95-11.65 21.95-13.2ZM55.8-19.4L56.65-19.4Q58.65-19.4 59.52-19.03 60.4-18.65 60.4-17.65L60.4-17.65Q60.4-16.3 56.05-14.9L56.05-14.9Q56.15-11.1 56.15-7.63 56.15-4.15 55.6-2.43 55.05-0.7 53.85-0.7 52.65-0.7 51.97-1.93 51.3-3.15 50.87-5.95 50.45-8.75 50-13.35L50-13.35Q44.9-12.2 42.65-11.5L42.65-11.5Q38.75-0.7 37.45-0.7L37.45-0.7Q36.4-0.7 34.67-2.1 32.95-3.5 32.95-5L32.95-5Q32.95-5.85 34.9-10.3L34.9-10.3Q34.05-10.85 33.42-11.88 32.8-12.9 32.8-13.85L32.8-13.85Q32.8-15.5 37.75-17L37.75-17Q38.15-18 38.57-19.28 39-20.55 40.72-25.25 42.45-29.95 43.45-33.1L43.45-33.1Q43.9-34.6 46.57-35.9 49.25-37.2 50.75-37.2L50.75-37.2Q52.5-37.2 53.87-32.35 55.25-27.5 55.8-19.4L55.8-19.4ZM45.1-18.55L45.1-18.55Q46.6-18.75 49.45-19.05L49.45-19.05Q49.3-20.5 48.97-24 48.65-27.5 48.5-29.05L48.5-29.05Q47.65-26.25 45.1-18.55ZM88.9-37.5L88.9-37.5Q90.35-37.5 92.12-36 93.9-34.5 93.9-33.55L93.9-33.55Q93.9-30.4 92.42-22.63 90.95-14.85 88.65-7.75 86.35-0.65 84.5-0.65L84.5-0.65Q83.75-0.65 82.55-1.48 81.35-2.3 80.95-3.43 80.55-4.55 79.4-8.1L79.4-8.1Q76.75-16.25 74.4-21.6L74.4-21.6Q74.05-20.1 73.47-17.35 72.9-14.6 72.55-13.03 72.2-11.45 71.7-9.22 71.2-7 70.82-5.7 70.45-4.4 70-3.1L70-3.1Q69.2-0.65 68.5-0.65L68.5-0.65Q67.5-0.65 65.9-2.48 64.3-4.3 64.3-5.63 64.3-6.95 67.17-19.55 70.05-32.15 70.3-35.35L70.3-35.35Q70.45-37.25 71.45-37.25L71.45-37.25Q72.3-37.25 73.62-36.25 74.95-35.25 75.92-33.83 76.9-32.4 79.45-24.55 82-16.7 83.5-13.3L83.5-13.3Q85.45-19.1 87.1-30.8L87.1-30.8Q87.75-35.45 87.95-36.48 88.15-37.5 88.9-37.5ZM100.19-0.65L100.19-0.65 100.09-0.65Q98.99-0.65 97.34-2.68 95.69-4.7 95.69-6.23 95.69-7.75 98.62-19.9 101.54-32.05 101.54-35.25L101.54-35.25Q101.54-37.25 102.99-37.25L102.99-37.25Q104.19-37.25 105.89-34.88 107.59-32.5 107.59-30.35L107.59-30.35Q107.59-29.05 106.29-23.7L106.29-23.7Q110.39-29.15 113.99-32.83 117.59-36.5 118.92-36.5 120.24-36.5 121.59-35.38 122.94-34.25 122.94-33.43 122.94-32.6 120.39-30.2 117.84-27.8 114.09-24.1 110.34-20.4 108.29-17.2L108.29-17.2Q108.29-13.35 112.74-9.45L112.74-9.45Q114.09-8.3 116.34-7.08 118.59-5.85 119.87-4.98 121.14-4.1 121.14-3.2L121.14-3.2Q121.14-0.65 117.54-0.65 113.94-0.65 109.79-3.58 105.64-6.5 103.59-11.35L103.59-11.35Q102.29-7.65 101.99-5.98 101.69-4.3 101.57-3.75 101.44-3.2 101.34-2.88 101.24-2.55 101.14-2.15 101.04-1.75 100.94-1.53 100.84-1.3 100.74-1.1L100.74-1.1Q100.44-0.65 100.19-0.65Z" opacity="1" transform="matrix(1,0,0,1,0,0)" fill="#2c2d34" class="undefined-p-1"></path>
																</svg>
															</g>
														</svg>
													</g>
												</svg>
											</g>
										</svg>
									</g>
								</svg>
							</g>
						</svg>
					</g>
					<defs></defs>
				</svg>
				
			</g>
		</svg>
	</g>
</svg>